<svg id="Layer_1" data-name="Layer 1" xmlns="http://www.w3.org/2000/svg" xmlns:xlink="http://www.w3.org/1999/xlink" viewBox="0 0 3555.56 2000"><defs><style>.cls-1{mask:url(#mask);filter:url(#luminosity-noclip-2);}.cls-2{mix-blend-mode:multiply;fill:url(#linear-gradient);}.cls-3{fill:none;}.cls-4{clip-path:url(#clip-path);}.cls-5{fill:url(#linear-gradient-2);}.cls-6{mask:url(#mask-2);}.cls-7{opacity:0.05;fill:url(#linear-gradient-3);}.cls-8{opacity:0.1;}.cls-9{fill:#240D63;}.cls-10,.cls-11,.cls-12,.cls-13,.cls-14,.cls-15,.cls-9{opacity:0.9;}.cls-10{fill:url(#linear-gradient-4);}.cls-11{fill:url(#linear-gradient-5);}.cls-12{fill:url(#linear-gradient-6);}.cls-13{fill:url(#linear-gradient-7);}.cls-14{fill:url(#linear-gradient-8);}.cls-15{fill:url(#linear-gradient-9);}.cls-16{opacity:0.5;}.cls-17{fill:#1e0f74;}.cls-18{filter:url(#luminosity-noclip);}</style><filter id="luminosity-noclip" x="-106.22" y="-9192" width="3716.08" height="32766" filterUnits="userSpaceOnUse" color-interpolation-filters="sRGB"><feFlood flood-color="#fff" result="bg"/><feBlend in="SourceGraphic" in2="bg"/></filter><mask id="mask" x="-106.22" y="-9192" width="3716.08" height="32766" maskUnits="userSpaceOnUse"><g class="cls-18"/></mask><linearGradient id="linear-gradient" x1="-106.22" y1="1368.16" x2="3609.86" y2="1368.16" gradientUnits="userSpaceOnUse"><stop offset="0" stop-color="#fff"/><stop offset="1"/></linearGradient><clipPath id="clip-path"><rect class="cls-3" x="-106.22" y="-68.14" width="3716.08" height="2110.36"/></clipPath><linearGradient id="linear-gradient-2" x1="-106.22" y1="987.04" x2="3609.86" y2="987.04" gradientUnits="userSpaceOnUse"><stop offset="0" stop-color="#240D63"/><stop offset="1" stop-color="#0A0749"/></linearGradient><filter id="luminosity-noclip-2" x="-106.22" y="694.1" width="3716.08" height="1348.12" filterUnits="userSpaceOnUse" color-interpolation-filters="sRGB"><feFlood flood-color="#fff" result="bg"/><feBlend in="SourceGraphic" in2="bg"/></filter><mask id="mask-2" x="-106.22" y="694.1" width="3716.08" height="1348.12" maskUnits="userSpaceOnUse"><g class="cls-1"><path class="cls-2" d="M3609.86,1342.46C3356.7,1029.39,3023.76,987,2645.32,987c-318.26,0-602.07,319.56-1059.89,300.56S974,1126.14,651,831.72c-216.71-197.55-553.41-141.4-757.2-82.11v1292.6H3609.86Z"/></g></mask><linearGradient id="linear-gradient-3" x1="-106.22" y1="1368.16" x2="3609.86" y2="1368.16" gradientUnits="userSpaceOnUse"><stop offset="0" stop-color="#fff"/><stop offset="1" stop-color="f6f4fa#"/></linearGradient><linearGradient id="linear-gradient-4" x1="-214.92" y1="1542.71" x2="1456.29" y2="1542.71" gradientUnits="userSpaceOnUse"><stop offset="0" stop-color="#5B4AA9"/><stop offset="0.82" stop-color="#240D63"/></linearGradient><linearGradient id="linear-gradient-5" x1="1699.21" y1="543.77" x2="3689.29" y2="543.77" gradientUnits="userSpaceOnUse"><stop offset="0" stop-color="#240D63"/><stop offset="1" stop-color="#240D63"/></linearGradient><linearGradient id="linear-gradient-6" x1="2239.66" y1="644.92" x2="3689.29" y2="644.92" gradientUnits="userSpaceOnUse"><stop offset="0" stop-color="#1E0F74"/><stop offset="1" stop-color="#240D63"/></linearGradient><linearGradient id="linear-gradient-7" x1="991.99" y1="1329.97" x2="1209.39" y2="1329.97" gradientUnits="userSpaceOnUse"><stop offset="0" stop-color="#240D63"/><stop offset="1" stop-color="#F7593D"/></linearGradient><linearGradient id="linear-gradient-8" x1="1677.61" y1="487.79" x2="1826.02" y2="487.79" gradientUnits="userSpaceOnUse"><stop offset="0" stop-color="#0A0749"/><stop offset="1" stop-color="#F7593D"/></linearGradient><linearGradient id="linear-gradient-9" x1="427.39" y1="329.55" x2="511.23" y2="329.55" xlink:href="#linear-gradient-7"/></defs><title>background-instatily</title><g class="cls-4"><rect class="cls-5" x="-106.22" y="-68.14" width="3716.08" height="2110.36"/><g class="cls-6"><path class="cls-7" d="M3609.86,1342.46C3356.7,1029.39,3023.76,987,2645.32,987c-318.26,0-602.07,319.56-1059.89,300.56S974,1126.14,651,831.72c-216.71-197.55-553.41-141.4-757.2-82.11v1292.6H3609.86Z"/></g><path class="cls-8" d="M-106.22,2042.21H2329.62c-56.41-89.47-225.23-306.59-487-207.93-326,122.9-602.16,183.74-784-291.32s-341.8-328.22-547.4-522.57S415.8,579.88,406.39,113.46C404.92,40.78,390.51-19,367.22-68.14H-106.22Z"/><path class="cls-8" d="M2090.29,609.22c401.38,150,451.55-193.47,749.45-164.85s-175.61,368.54,0,704.87,642.83,56.85,526.8,405.9c-87.1,262.06,129.79,359.64,243.32,392V-68.14H1830.47C1806.45,138.61,1807.68,503.6,2090.29,609.22Z"/><path class="cls-9" d="M1026.93,1904c-473.11,143.5-798.52-84.88-869.76-493.83-76.46-438.95,98.25-437,95.58-801.93-1.93-264.6-302.51-349.64-467.67-376.39V2122.41H1839.45C1759.61,1927.34,1436.19,1779.85,1026.93,1904Z"/><path class="cls-10" d="M875,1739.38c-212.44,173-364-18.43-329.62-181.63,36-171,130.74-443-190.17-557C131.09,921.15-97.46,985.18-214.92,1031V2122.41H1456.29C1425.52,1663.77,1074.55,1576.87,875,1739.38Z"/><path class="cls-11" d="M2026.4,209.37c362.83,8.44,810.82-295.76,751.66-26.64-34.47,156.8-98.57,212.35-98.57,360.08s139.09,249,477.73,215.25,429.35,92.86,320.5,227.92c-91,112.92,135,220,211.57,252V-150.45H1699.21C1703.16-42.89,1743.23,202.78,2026.4,209.37Z"/><path class="cls-12" d="M2630.79,382.42c518.39,80.19,622.9,257.46,543.47,578.24-70.85,286.11,180.93,619.23,515,418.32V-150.45H2243.75C2227.23,5.94,2243.57,322.52,2630.79,382.42Z"/><ellipse class="cls-13" cx="1100.69" cy="1329.97" rx="108.7" ry="109.74"/><ellipse class="cls-14" cx="1751.82" cy="487.79" rx="74.21" ry="74.92"/><ellipse class="cls-15" cx="469.31" cy="329.55" rx="41.92" ry="42.32"/><g class="cls-16"><path class="cls-17" d="M1155.88,1958.9c-49-41.18-125.49-58.55-233.7-53.1-94.93,4.78-200.31,25.83-302.21,46.19-43.24,8.64-84.07,16.8-123.32,23.58-58.14,10-115.92,4.56-167.07-15.86-52.13-20.8-97.61-57.28-131.53-105.5-57.51-81.75-82-195-70.93-327.45,6.14-73.22,23.15-152.32,50.57-235.11,29.48-89,71.34-183.27,124.42-280.19C406,821.73,425.29,674.39,359.36,573.52c-27.84-42.6-71.11-76.92-128.59-102-45.9-20-100.92-34.23-163.53-42.24-72.23-9.23-138.18-8-173.46-6.17v3.17c35.1-1.8,101-3.08,173.13,6.15,62.31,8,117,22.11,162.64,42,56.9,24.83,99.7,58.75,127.2,100.83,65.23,99.8,45.92,246-57.38,434.66-53.18,97.09-95.12,191.54-124.65,280.72-27.5,83-44.57,162.37-50.73,235.84-11.16,133.22,13.56,247.18,71.5,329.55,34.27,48.72,80.24,85.59,132.94,106.62,51.69,20.62,110,26.17,168.75,16,39.28-6.78,80.14-15,123.4-23.59,101.79-20.34,207-41.37,301.76-46.14,107.39-5.41,183.13,11.73,231.53,52.38,21.9,18.38,38.57,42.06,49.57,70.39,1.33,3.41,2.56,6.91,3.73,10.48h3.32q-1.93-6-4.13-11.63C1195.17,2001.75,1178.18,1977.63,1155.88,1958.9Z"/><path class="cls-17" d="M3609.86,854.45q-23.66,62.63-55.93,113.12c-48.2,75.29-110,127.25-178.75,150.29-46.67,15.63-95.81,17.46-142.09,5.29-45.43-12-87.15-37.08-120.65-72.64-42.79-45.43-70.54-105.76-80.24-174.47-10.91-77.22.79-161.13,34.77-249.4,30.86-80.15,42.71-157,35.24-228.57-7.06-67.57-31.1-128.82-71.45-182C2980,149.09,2904.24,97,2811.64,65.51c-93.67-31.89-203.28-42.26-317-30-78.19,8.43-158,30.09-243.93,66.22-75.91,31.9-147.16,70.83-216.06,108.47-93.59,51.13-182,99.43-271.72,124.72-100.48,28.32-188.58,23.75-277.23-14.37-77-33.11-141.36-77.43-191.26-131.72a459.1,459.1,0,0,1-91.62-148.22,469.2,469.2,0,0,1-27-108.76h-3.15a472.08,472.08,0,0,0,27.12,109.75,462.25,462.25,0,0,0,92.23,149.31c50.22,54.65,115,99.25,192.4,132.55,47.17,20.28,93.79,30.93,142.52,32.56,43.77,1.46,88.51-4.45,136.79-18,90.07-25.39,178.61-73.76,272.36-125,68.83-37.61,140-76.5,215.78-108.34,85.66-36,165.17-57.59,243-66,113.27-12.22,222.43-1.9,315.67,29.85,92,31.33,167.26,83,217.63,149.44,40,52.76,63.82,113.47,70.82,180.45,7.42,71-4.37,147.42-35,227.1-34.18,88.78-45.94,173.23-35,251,9.8,69.36,37.84,130.29,81.08,176.2,33.9,36,76.14,61.42,122.13,73.52a245.45,245.45,0,0,0,62.52,8.06,255.86,255.86,0,0,0,81.35-13.41c69.42-23.26,131.8-75.67,180.39-151.57q30.46-47.58,53.3-106.09Z"/></g></g></svg>