<svg width="412" height="114" viewBox="0 0 412 114" fill="none" xmlns="http://www.w3.org/2000/svg">
<path d="M142.746 47.6825C146.856 47.6825 150.196 48.9735 152.765 51.5556C155.377 54.0952 156.683 57.7989 156.683 62.6667V82.9841H152.251V63.1746C152.251 59.4074 151.331 56.5291 149.489 54.5397C147.648 52.5503 145.144 51.5556 141.975 51.5556C138.678 51.5556 136.045 52.6349 134.076 54.7936C132.106 56.9524 131.121 60.0847 131.121 64.1905V82.9841H126.69V63.1746C126.69 59.4074 125.769 56.5291 123.928 54.5397C122.087 52.5503 119.561 51.5556 116.35 51.5556C113.053 51.5556 110.42 52.6349 108.45 54.7936C106.48 56.9524 105.496 60.0847 105.496 64.1905V82.9841H101V48.3175H105.496V54.2857C106.609 52.127 108.193 50.4974 110.248 49.3968C112.303 48.254 114.594 47.6825 117.12 47.6825C120.16 47.6825 122.815 48.4021 125.084 49.8413C127.396 51.2804 129.066 53.3968 130.094 56.1905C131.036 53.4392 132.641 51.3439 134.91 49.9048C137.223 48.4233 139.834 47.6825 142.746 47.6825Z" fill="white"/>
<path d="M198.779 48.3175L177.97 99.3016H173.282L180.09 82.7937L165.704 48.3175H170.649L182.595 77.9048L194.155 48.3175H198.779Z" fill="white"/>
<path d="M229.088 60.0635C231.614 60.5291 233.755 61.7989 235.51 63.873C237.266 65.9471 238.144 68.3598 238.144 71.1111C238.144 73.3545 237.566 75.3862 236.41 77.2064C235.296 78.9841 233.648 80.4021 231.464 81.4603C229.281 82.4762 226.669 82.9841 223.629 82.9841H208.087V38.6032H223.179C227.718 38.6032 231.165 39.6402 233.52 41.7143C235.917 43.7884 237.116 46.4762 237.116 49.7778C237.116 52.5291 236.367 54.7725 234.868 56.5079C233.37 58.2011 231.443 59.3862 229.088 60.0635ZM212.582 58.2222H223.051C226.091 58.2222 228.424 57.5238 230.051 56.127C231.721 54.6878 232.556 52.7196 232.556 50.2222C232.556 47.7672 231.721 45.8413 230.051 44.4444C228.424 43.0476 226.027 42.3492 222.858 42.3492H212.582V58.2222ZM223.308 79.2381C226.562 79.2381 229.088 78.4762 230.886 76.9524C232.727 75.4286 233.648 73.3333 233.648 70.6667C233.648 68 232.685 65.8836 230.758 64.3175C228.874 62.709 226.326 61.9048 223.115 61.9048H212.582V79.2381H223.308Z" fill="white"/>
<path d="M254.115 36V82.9841H249.619V36H254.115Z" fill="white"/>
<path d="M282.856 83.4921C279.56 83.4921 276.584 82.7725 273.929 81.3333C271.317 79.8519 269.241 77.7778 267.699 75.1111C266.201 72.4021 265.452 69.2487 265.452 65.6508C265.452 62.0529 266.222 58.9206 267.764 56.254C269.305 53.545 271.403 51.4709 274.058 50.0317C276.712 48.5503 279.688 47.8095 282.985 47.8095C286.282 47.8095 289.257 48.5503 291.912 50.0317C294.609 51.4709 296.707 53.545 298.206 56.254C299.747 58.9206 300.518 62.0529 300.518 65.6508C300.518 69.2064 299.747 72.3386 298.206 75.0476C296.665 77.7566 294.545 79.8519 291.848 81.3333C289.15 82.7725 286.153 83.4921 282.856 83.4921ZM282.856 79.6191C285.168 79.6191 287.309 79.1111 289.279 78.0952C291.248 77.037 292.833 75.4709 294.031 73.3968C295.273 71.2804 295.894 68.6984 295.894 65.6508C295.894 62.6032 295.295 60.0423 294.096 57.9683C292.897 55.8518 291.313 54.2857 289.343 53.2698C287.373 52.2116 285.233 51.6825 282.921 51.6825C280.609 51.6825 278.468 52.2116 276.498 53.2698C274.529 54.2857 272.944 55.8518 271.746 57.9683C270.59 60.0423 270.012 62.6032 270.012 65.6508C270.012 68.6984 270.59 71.2804 271.746 73.3968C272.944 75.4709 274.507 77.037 276.434 78.0952C278.403 79.1111 280.544 79.6191 282.856 79.6191Z" fill="white"/>
<path d="M326.632 47.8095C329.929 47.8095 332.797 48.5714 335.238 50.0952C337.678 51.619 339.434 53.545 340.504 55.873V48.3175H345V83.873C345 87.0476 344.294 89.8624 342.881 92.3175C341.51 94.7725 339.584 96.6561 337.1 97.9683C334.617 99.3228 331.791 100 328.623 100C324.127 100 320.381 98.9418 317.384 96.8254C314.429 94.709 312.588 91.8307 311.86 88.1905H316.292C317.062 90.6032 318.518 92.5291 320.659 93.9683C322.843 95.4074 325.497 96.127 328.623 96.127C330.892 96.127 332.926 95.6402 334.724 94.6667C336.522 93.7355 337.935 92.3386 338.963 90.4762C339.991 88.6138 340.504 86.4127 340.504 83.873V75.3016C339.391 77.672 337.614 79.6402 335.174 81.2064C332.776 82.7302 329.929 83.4921 326.632 83.4921C323.421 83.4921 320.531 82.7513 317.962 81.2698C315.435 79.7884 313.444 77.6931 311.989 74.9841C310.576 72.2751 309.869 69.1429 309.869 65.5873C309.869 62.0317 310.576 58.9206 311.989 56.254C313.444 53.545 315.435 51.4709 317.962 50.0317C320.531 48.5503 323.421 47.8095 326.632 47.8095ZM340.504 65.6508C340.504 62.8571 339.926 60.4021 338.77 58.2857C337.614 56.1693 336.03 54.5397 334.018 53.3968C332.048 52.254 329.864 51.6825 327.467 51.6825C324.983 51.6825 322.757 52.2328 320.787 53.3333C318.818 54.4339 317.255 56.0423 316.099 58.1587C314.986 60.2328 314.429 62.709 314.429 65.5873C314.429 68.4233 314.986 70.9206 316.099 73.0794C317.255 75.1958 318.818 76.8254 320.787 77.9683C322.757 79.0688 324.983 79.6191 327.467 79.6191C329.864 79.6191 332.048 79.0476 334.018 77.9048C336.03 76.7619 337.614 75.1323 338.77 73.0159C339.926 70.8995 340.504 68.4444 340.504 65.6508Z" fill="white"/>
<path d="M375.956 74.2659H390.308V83H365V36.5506H375.956V74.2659Z" fill="white"/>
<path d="M405.529 42.2409C403.607 42.2409 402.026 41.6675 400.788 40.5206C399.592 39.3296 398.994 37.8739 398.994 36.1536C398.994 34.3891 399.592 32.9334 400.788 31.7865C402.026 30.5955 403.607 30 405.529 30C407.408 30 408.946 30.5955 410.142 31.7865C411.381 32.9334 412 34.3891 412 36.1536C412 37.8739 411.381 39.3296 410.142 40.5206C408.946 41.6675 407.408 42.2409 405.529 42.2409ZM410.975 46.0787V83H400.019V46.0787H410.975Z" fill="white"/>
<mask id="mask0_116_414" style="mask-type:luminance" maskUnits="userSpaceOnUse" x="0" y="0" width="87" height="114">
<path d="M86.5834 15.1914L23.9494 0L-1.25338e-05 98.7431L62.634 113.935L86.5834 15.1914Z" fill="white"/>
</mask>
<g mask="url(#mask0_116_414)">
<path d="M41.5078 50.7587L79.1072 42.9275L79.7254 42.8007L79.728 42.79C79.753 42.7847 79.7666 42.7757 79.788 42.7809L79.7986 42.7835C79.8103 42.7863 79.8103 42.7863 79.8236 42.7782C79.8369 42.7701 79.8608 42.7646 79.8725 42.7674L79.8831 42.77L79.8964 42.7619L79.3254 41.2981C79.3221 41.2817 79.3184 41.2654 79.3146 41.2491L79.3039 41.2465L74.127 27.857L68.8584 14.2313C68.3586 12.9386 67.5122 11.8087 66.412 10.9657C65.3119 10.1228 64.0006 9.59949 62.6223 9.45333C61.2441 9.30719 59.8523 9.54385 58.5998 10.1373C57.3473 10.7308 56.2827 11.658 55.5229 12.8172L41.5034 34.2269C41.0888 34.854 40.7414 35.523 40.4667 36.2227L40.4552 36.2199C40.4474 36.2287 40.4419 36.2391 40.4391 36.2505C40.4364 36.2619 40.4365 36.2737 40.4394 36.2851C40.429 36.3012 40.4209 36.3185 40.4154 36.3369C39.5341 38.5403 39.3371 40.9581 39.8501 43.2751L41.1752 49.2663L41.2313 49.5104L41.454 50.544L41.5078 50.7587Z" fill="#F7593D"/>
<g style="mix-blend-mode:multiply" opacity="0.15">
<path d="M41.5083 50.7588L79.1076 42.9276L79.7259 42.8008L79.7285 42.7901C79.7535 42.7849 79.767 42.7758 79.7884 42.781L79.7991 42.7836C79.8107 42.7864 79.8107 42.7864 79.824 42.7783C79.8373 42.7702 79.8613 42.7647 79.8729 42.7675L79.8836 42.7701L79.8969 42.762L79.3258 41.2982C79.3226 41.2818 79.3189 41.2655 79.3151 41.2493L79.3044 41.2467L74.1275 27.8572L73.498 28.2684L41.176 49.2613L41.232 49.5054L41.4546 50.539L41.5083 50.7588Z" fill="#F7593D"/>
</g>
<g style="mix-blend-mode:multiply" opacity="0.3">
<path d="M41.5086 50.7588L79.7224 42.7999C79.7477 42.8 79.7728 42.794 79.7955 42.7826C79.7718 42.7797 79.7478 42.782 79.725 42.7892C79.2368 42.855 77.7176 43.0854 75.4062 43.4468C72.5566 43.9317 68.4792 44.5449 63.6041 45.4009C58.729 46.257 53.057 47.2675 46.9807 48.4218C45.1062 48.7852 43.1773 49.1354 41.2323 49.5054L41.5086 50.7588Z" fill="#F7593D"/>
</g>
<path d="M35.1815 105.828C35.1965 105.821 35.213 105.816 35.2297 105.816C35.2647 105.81 35.2986 105.799 35.3304 105.783C35.536 105.741 35.7454 105.688 35.9432 105.632L55.8801 99.8322C59.2075 98.8611 62.2204 97.0298 64.6146 94.5231C67.0088 92.0165 68.7001 88.923 69.5177 85.5544L79.896 42.765L79.8827 42.7731L79.872 42.7705C79.8603 42.7677 79.847 42.7759 79.823 42.7814C79.7991 42.7869 79.8097 42.7895 79.7981 42.7867C79.7744 42.7837 79.7503 42.786 79.7276 42.7931L79.725 42.8038L21.3751 54.6141C18.5325 55.1904 15.8712 56.445 13.6179 58.2712C11.3645 60.0975 9.58592 62.4412 8.43339 65.1028C7.28086 67.7644 6.78858 70.6651 6.99848 73.558C7.2084 76.4508 8.11427 79.2501 9.63899 81.7174L15.4172 91.0576C15.4429 91.0943 15.4639 91.134 15.4802 91.1757L15.48 91.1803L15.4817 91.1845L15.485 91.1877L15.4892 91.1892L15.4971 91.2036L20.8272 99.8247C22.2935 102.199 24.4662 104.055 27.0406 105.131C29.6148 106.208 32.4616 106.452 35.1815 105.828Z" fill="#F7593D"/>
<g style="mix-blend-mode:multiply" opacity="0.3">
<path d="M35.2304 105.813C35.4745 105.757 35.7079 105.699 35.9439 105.629L55.8808 99.8291C59.2083 98.8579 62.2211 97.0266 64.6153 94.5201C67.0096 92.0134 68.7007 88.9198 69.5185 85.5513L76.7267 55.8319C76.7267 55.8319 76.3601 56.9191 75.7805 58.8294C75.2009 60.7396 74.3512 63.4497 73.4247 66.739C72.4777 70.0244 71.4191 73.867 70.3371 77.9974C69.8024 80.0574 69.228 82.1881 68.6903 84.3626C68.2503 86.4749 67.4633 88.4995 66.3614 90.3544C64.2052 94.0195 60.8883 96.8606 56.9357 98.4283C56.4617 98.6221 55.9874 98.7745 55.51 98.9355C55.0114 99.0903 54.5088 99.2452 54.0255 99.4048C53.0494 99.7216 52.0984 100.032 51.1606 100.335C49.302 100.921 47.546 101.509 45.9251 102.061C42.6826 103.127 40.0107 104.118 38.1246 104.767C37.1815 105.092 36.4525 105.39 35.9493 105.565C35.572 105.69 35.3255 105.782 35.2304 105.813Z" fill="#F7593D"/>
</g>
<g style="mix-blend-mode:screen" opacity="0.4">
<path d="M79.7243 42.789L79.7217 42.7997C79.7471 42.7998 79.7721 42.7938 79.7947 42.7824C79.771 42.7796 79.747 42.7818 79.7243 42.789Z" fill="#F7593D"/>
</g>
<g style="mix-blend-mode:screen" opacity="0.4">
<path d="M15.418 91.0545C15.1891 90.6193 14.4547 89.2774 13.3018 87.2341C12.5926 85.9796 11.7294 84.4562 10.7369 82.7018C10.4948 82.2747 10.209 81.7897 9.98922 81.368C9.76286 80.8871 9.52557 80.3919 9.27736 79.8823C9.03871 79.378 8.83371 78.8583 8.66368 78.3269C8.44964 77.7862 8.28844 77.2261 8.18236 76.6543C7.58745 74.168 7.55352 71.5805 8.08303 69.0794C8.68788 66.3114 9.94662 63.7284 11.754 61.5465C13.6782 59.2363 16.1766 57.4734 18.998 56.4349C20.4916 55.9344 22.0218 55.5503 23.5747 55.2863C25.1828 54.9735 26.805 54.6529 28.4158 54.3284C31.6435 53.6593 34.8711 52.9903 38.0473 52.3427C41.2234 51.6951 44.3528 51.0032 47.379 50.3542C53.4218 49.0539 59.0516 47.7924 63.8647 46.6661C68.6831 45.5648 72.6853 44.5537 75.4977 43.8868C77.7673 43.3198 79.2557 42.9317 79.7241 42.8035L21.3742 54.6137C18.5316 55.19 15.8703 56.4446 13.617 58.2708C11.3636 60.097 9.585 62.4407 8.43247 65.1023C7.27995 67.764 6.78766 70.6648 6.99759 73.5576C7.20749 76.4504 8.11334 79.2497 9.63805 81.717L15.418 91.0545Z" fill="#F7593D"/>
</g>
<g style="mix-blend-mode:screen" opacity="0.2">
<path d="M33.5376 101.58L33.7404 101.456L34.4489 101.386C34.5366 101.372 34.623 101.351 34.7072 101.322L54.6337 95.5311C56.8462 94.8845 58.8825 93.7428 60.5884 92.1927L15.611 62.4532C13.734 64.2604 12.4147 66.5681 11.8096 69.1025C11.39 70.8371 11.3196 72.6377 11.6024 74.3997C11.8852 76.1617 12.5155 77.8498 13.4568 79.3659L18.3494 87.2709L18.4155 87.2869L19.2374 88.6964C19.2761 88.7747 19.3442 88.8715 19.4078 88.9908L24.6471 97.4645C25.5629 98.946 26.8937 100.126 28.4743 100.857C30.0548 101.589 31.8155 101.84 33.5376 101.58Z" fill="#F7593D"/>
</g>
<g style="mix-blend-mode:multiply" opacity="0.3">
<path d="M79.3189 41.2502L79.3083 41.2476C79.3057 41.2583 79.3164 41.2609 79.3245 41.2742C79.32 41.267 79.3181 41.2585 79.3189 41.2502Z" fill="#F7593D"/>
</g>
<g style="mix-blend-mode:multiply" opacity="0.3">
<path d="M41.5091 34.2232C41.0946 34.8503 40.7471 35.5193 40.4725 36.2191C40.5338 36.1064 40.6436 35.8912 40.8074 35.5975C41.1999 34.9319 41.6391 34.295 42.1217 33.6916C43.303 32.0539 45.0444 29.77 47.0387 26.961C49.033 24.1519 51.3554 20.8513 53.7752 17.2893C54.3828 16.4005 54.9926 15.4988 55.6189 14.5795C55.9311 14.1407 56.2532 13.6272 56.5577 13.2287L56.9963 12.655L57.5225 12.1487C58.6415 11.1903 60.0471 10.6308 61.5186 10.558C62.9901 10.4852 64.4442 10.9033 65.6523 11.7466C66.039 12.0409 66.3944 12.3744 66.7127 12.7416C66.8765 12.906 67.0177 13.0914 67.1325 13.2931C67.2812 13.479 67.41 13.68 67.517 13.8926L67.8724 14.659L68.16 15.3739C68.3702 15.8859 68.5779 16.4086 68.7872 16.9203C69.2067 17.9482 69.6165 18.9654 70.0198 19.9626C71.2243 22.9301 72.399 25.7361 73.501 28.2733C73.863 29.1565 74.233 30.0067 74.5895 30.8196C75.9527 33.9852 77.1744 36.5977 77.9852 38.4346C78.7132 40.0404 79.1988 41.0339 79.3065 41.2555L74.1297 27.866L68.861 14.2402C68.3612 12.9475 67.5148 11.8176 66.4146 10.9746C65.3144 10.1317 64.0031 9.60842 62.625 9.46228C61.2467 9.31612 59.8549 9.55278 58.6024 10.1462C57.3499 10.7397 56.2853 11.6669 55.5255 12.8261L41.5091 34.2232Z" fill="#F7593D"/>
</g>
<g style="mix-blend-mode:multiply" opacity="0.3">
<path d="M40.4607 36.2163C40.4529 36.225 40.4474 36.2355 40.4447 36.2468C40.4419 36.2581 40.442 36.2701 40.4449 36.2814C40.456 36.2614 40.4652 36.2406 40.4725 36.2191L40.4607 36.2163Z" fill="#F7593D"/>
</g>
</g>
</svg>
